<svg width="31" height="32" viewBox="0 0 31 32" fill="none" xmlns="http://www.w3.org/2000/svg">
<g clip-path="url(#clip0_9_175)">
<path d="M23.2422 24.7626C23.4975 24.7626 23.7471 24.6868 23.9594 24.5449C24.1717 24.403 24.3372 24.2014 24.4349 23.9655C24.5326 23.7296 24.5582 23.47 24.5084 23.2195C24.4586 22.9691 24.3356 22.7391 24.1551 22.5585L16.1856 14.5903C14.9749 13.3799 13.3331 12.7 11.6211 12.7C9.90917 12.7 8.26732 13.3799 7.05661 14.5903L4.25205 17.3935C4.01684 17.6371 3.88669 17.9632 3.88964 18.3018C3.89258 18.6404 4.02838 18.9642 4.26778 19.2036C4.50719 19.443 4.83104 19.5788 5.1696 19.5818C5.50816 19.5847 5.83432 19.4546 6.07785 19.2193L8.88241 16.4161C9.61999 15.7112 10.6009 15.3179 11.6211 15.3179C12.6413 15.3179 13.6222 15.7112 14.3598 16.4161L22.3293 24.3843C22.5714 24.6264 22.8998 24.7625 23.2422 24.7626Z" fill="#080816" fill-opacity="0.38"/>
<path d="M20.6597 13.787C21.5535 13.787 22.4273 13.522 23.1705 13.0254C23.9137 12.5288 24.4929 11.823 24.835 10.9972C25.177 10.1714 25.2665 9.2627 25.0922 8.38604C24.9178 7.50938 24.4874 6.70411 23.8553 6.07208C23.2233 5.44004 22.418 5.00962 21.5414 4.83524C20.6647 4.66086 19.756 4.75036 18.9302 5.09241C18.1044 5.43447 17.3986 6.01372 16.902 6.75692C16.4054 7.50012 16.1404 8.37388 16.1404 9.26771C16.1404 10.4663 16.6165 11.6158 17.4641 12.4634C18.3116 13.3109 19.4611 13.787 20.6597 13.787ZM20.6597 7.33087C21.0428 7.33087 21.4172 7.44446 21.7357 7.65728C22.0543 7.87011 22.3025 8.1726 22.4491 8.52651C22.5957 8.88043 22.6341 9.26986 22.5593 9.64558C22.4846 10.0213 22.3001 10.3664 22.0293 10.6373C21.7584 10.9081 21.4133 11.0926 21.0376 11.1673C20.6618 11.2421 20.2724 11.2037 19.9185 11.0571C19.5646 10.9105 19.2621 10.6623 19.0493 10.3438C18.8364 10.0253 18.7228 9.65079 18.7228 9.26771C18.7228 8.75403 18.9269 8.26138 19.2901 7.89816C19.6534 7.53493 20.146 7.33087 20.6597 7.33087Z" fill="#080816" fill-opacity="0.38"/>
<path d="M29.6984 20.889C29.3559 20.889 29.0275 21.025 28.7853 21.2672C28.5432 21.5093 28.4071 21.8378 28.4071 22.1802V24.7627C28.4071 25.79 27.999 26.7753 27.2725 27.5018C26.5461 28.2283 25.5608 28.6364 24.5334 28.6364H21.951C21.6085 28.6364 21.2801 28.7724 21.0379 29.0146C20.7958 29.2567 20.6597 29.5851 20.6597 29.9276C20.6597 30.2701 20.7958 30.5985 21.0379 30.8406C21.2801 31.0828 21.6085 31.2188 21.951 31.2188H24.5334C26.2451 31.2168 27.886 30.5359 29.0964 29.3256C30.3067 28.1153 30.9875 26.4743 30.9896 24.7627V22.1802C30.9896 21.8378 30.8536 21.5093 30.6114 21.2672C30.3692 21.025 30.0408 20.889 29.6984 20.889Z" fill="#080816" fill-opacity="0.38"/>
<path d="M1.29123 10.559C1.63369 10.559 1.96212 10.423 2.20427 10.1808C2.44643 9.93869 2.58247 9.61026 2.58247 9.2678V6.68534C2.58247 5.65797 2.99059 4.67268 3.71705 3.94622C4.44351 3.21976 5.4288 2.81164 6.45616 2.81164H9.03863C9.38109 2.81164 9.70952 2.6756 9.95167 2.43344C10.1938 2.19129 10.3299 1.86286 10.3299 1.5204C10.3299 1.17795 10.1938 0.849518 9.95167 0.607365C9.70952 0.365212 9.38109 0.229172 9.03863 0.229172L6.45616 0.229172C4.74451 0.231222 3.10355 0.912081 1.89323 2.1224C0.68291 3.33272 0.00205029 4.97368 0 6.68534L0 9.2678C0 9.61026 0.13604 9.93869 0.378193 10.1808C0.620346 10.423 0.948777 10.559 1.29123 10.559Z" fill="#080816" fill-opacity="0.38"/>
<path d="M9.03863 28.6364H6.45616C5.4288 28.6364 4.44351 28.2283 3.71705 27.5018C2.99059 26.7753 2.58247 25.79 2.58247 24.7627V22.1802C2.58247 21.8378 2.44643 21.5093 2.20427 21.2672C1.96212 21.025 1.63369 20.889 1.29123 20.889C0.948777 20.889 0.620346 21.025 0.378193 21.2672C0.13604 21.5093 0 21.8378 0 22.1802L0 24.7627C0.00205029 26.4743 0.68291 28.1153 1.89323 29.3256C3.10355 30.5359 4.74451 31.2168 6.45616 31.2188H9.03863C9.38109 31.2188 9.70952 31.0828 9.95167 30.8406C10.1938 30.5985 10.3299 30.2701 10.3299 29.9276C10.3299 29.5851 10.1938 29.2567 9.95167 29.0146C9.70952 28.7724 9.38109 28.6364 9.03863 28.6364Z" fill="#080816" fill-opacity="0.38"/>
<path d="M24.5334 0.229172H21.951C21.6085 0.229172 21.2801 0.365212 21.0379 0.607365C20.7958 0.849518 20.6597 1.17795 20.6597 1.5204C20.6597 1.86286 20.7958 2.19129 21.0379 2.43344C21.2801 2.6756 21.6085 2.81164 21.951 2.81164H24.5334C25.5608 2.81164 26.5461 3.21976 27.2725 3.94622C27.999 4.67268 28.4071 5.65797 28.4071 6.68534V9.2678C28.4071 9.61026 28.5432 9.93869 28.7853 10.1808C29.0275 10.423 29.3559 10.559 29.6984 10.559C30.0408 10.559 30.3692 10.423 30.6114 10.1808C30.8536 9.93869 30.9896 9.61026 30.9896 9.2678V6.68534C30.9875 4.97368 30.3067 3.33272 29.0964 2.1224C27.886 0.912081 26.2451 0.231222 24.5334 0.229172V0.229172Z" fill="#080816" fill-opacity="0.38"/>
</g>
<defs>
<clipPath id="clip0_9_175">
<rect width="30.9896" height="30.9896" fill="white" transform="translate(0 0.229172)"/>
</clipPath>
</defs>
</svg>
